<?xml version="1.0" encoding="utf-8"?>
<!-- Generator: Adobe Illustrator 16.0.3, SVG Export Plug-In . SVG Version: 6.00 Build 0)  -->
<!DOCTYPE svg PUBLIC "-//W3C//DTD SVG 1.1//EN" "http://www.w3.org/Graphics/SVG/1.1/DTD/svg11.dtd">
<svg version="1.1" id="Шар_1" xmlns="http://www.w3.org/2000/svg" xmlns:xlink="http://www.w3.org/1999/xlink" x="0px" y="0px"
	 width="235.685px" height="235.685px" viewBox="0 0 235.685 235.685" enable-background="new 0 0 235.685 235.685"
	 xml:space="preserve">
<path fill="#239CD8" d="M117.842,0c32.541,0,62.002,13.19,83.327,34.515c21.325,21.326,34.516,50.786,34.516,83.327
	c0,32.541-13.19,62.002-34.516,83.326c-21.325,21.326-50.786,34.516-83.327,34.516s-62.001-13.189-83.327-34.516
	C13.19,179.844,0,150.383,0,117.842c0-32.541,13.19-62.001,34.516-83.327C55.841,13.19,85.301,0,117.842,0z"/>
<path fill="#FFEC03" d="M176.182,59.033C161,43.851,140.025,34.46,116.856,34.46c-23.168,0-44.144,9.391-59.326,24.573
	C42.348,74.215,32.957,95.19,32.957,118.359s9.391,44.144,24.573,59.326c15.182,15.183,36.158,24.573,59.326,24.573
	c23.169,0,44.145-9.391,59.326-24.573c15.183-15.182,24.573-36.157,24.573-59.326S191.365,74.215,176.182,59.033 M116.856,30.775
	c24.186,0,46.082,9.803,61.932,25.653s25.653,37.747,25.653,61.931c0,24.185-9.804,46.082-25.653,61.931
	s-37.746,25.653-61.932,25.653c-24.185,0-46.082-9.804-61.931-25.653c-15.85-15.85-25.653-37.746-25.653-61.931
	c0-24.185,9.804-46.082,25.653-61.931C70.774,40.578,92.671,30.775,116.856,30.775z"/>
<path fill="#FFEC03" d="M198.564,37.12c-20.657-20.658-49.197-33.436-80.722-33.436c-31.524,0-60.064,12.778-80.722,33.436
	C16.463,57.778,3.685,86.318,3.685,117.842s12.778,60.064,33.436,80.722C57.778,219.222,86.318,232,117.842,232
	c31.524,0,60.064-12.778,80.722-33.436C219.222,177.906,232,149.366,232,117.842S219.222,57.778,198.564,37.12 M117.842,0
	c32.541,0,62.002,13.19,83.327,34.515c21.325,21.326,34.516,50.786,34.516,83.327c0,32.541-13.19,62.001-34.516,83.327
	s-50.786,34.516-83.327,34.516s-62.001-13.19-83.327-34.516S0,150.383,0,117.842c0-32.541,13.19-62.001,34.516-83.327
	C55.841,13.19,85.301,0,117.842,0z"/>
<path fill="#052859" d="M105.008,141.081l5.892-0.007l-0.023-18.771l-0.003-2.866l2.733,0.823c0.675,0.203,1.326,0.46,1.95,0.759
	c0.646,0.311,1.242,0.66,1.789,1.038c1.478,0.99,2.832,2.263,4.066,3.815c1.198,1.509,2.283,3.286,3.255,5.33l0.01,0.017
	c0.921,1.979,2.102,4.832,3.535,8.56c1.352,3.515,2.955,7.892,4.807,13.136l0.005-0.002c1.67,4.631,2.968,8.194,3.89,10.673
	c0.974,2.614,1.639,4.334,1.999,5.158l0.173,0.396l0.001,0.444l0.003,1.955l31.271-0.039l-0.002-1.473
	c-1.42-0.342-2.701-0.831-3.845-1.466c-1.685-0.935-3.051-2.17-4.096-3.7l-0.018-0.024c-0.914-1.375-2.179-3.802-3.787-7.281
	c-1.562-3.377-3.465-7.775-5.706-13.194l0.004-0.002c-1.859-4.436-3.5-8.196-4.926-11.282c-1.384-2.992-2.507-5.217-3.372-6.667
	l-0.009-0.016c-0.808-1.376-1.81-2.679-3.002-3.902c-1.201-1.232-2.578-2.365-4.125-3.39c-1.521-1.007-3.313-1.841-5.381-2.5
	c-2.101-0.669-4.497-1.154-7.195-1.455l-1.883-0.21l-0.003-1.894l-0.001-0.83l-0.002-1.258l1.093-0.604
	c2.833-1.567,5.36-3.797,7.581-6.692c2.275-2.967,4.238-6.635,5.889-11.009l0.008-0.017c1.096-2.818,2.168-5.302,3.213-7.455
	c1.078-2.222,2.138-4.115,3.173-5.681l-0.001-0.001c1.152-1.758,2.459-3.093,3.91-4.003l0.004,0.006
	c1.543-0.966,3.217-1.452,5.014-1.454c2.511-0.003,4.52,0.851,6.026,2.561c1.064,1.207,1.824,2.813,2.281,4.818l7.522-0.009
	l-0.021-16.383c-1.16-0.344-2.388-0.619-3.681-0.823c-1.852-0.292-3.812-0.439-5.876-0.437c-2.729,0.003-5.189,0.221-7.377,0.657
	c-2.121,0.422-3.987,1.052-5.597,1.89l-0.017,0.009c-1.609,0.826-3.085,1.849-4.426,3.062c-1.35,1.223-2.565,2.646-3.645,4.263
	c-1.099,1.645-2.266,3.907-3.504,6.792c-1.283,2.991-2.608,6.553-3.978,10.691v0.008c-1.192,3.564-2.538,6.749-4.039,9.554
	c-1.521,2.841-3.196,5.284-5.032,7.332l0.001,0c-1.038,1.166-2.221,2.184-3.546,3.05c-1.314,0.857-2.755,1.558-4.322,2.098
	l-2.8,0.965l-0.004-2.966l-0.022-17.896l-5.891,0.007l0.023,19.021l0.002,2.125l-2.114,0.002l-6.006,0.007l-2.124,0.003
	l-0.002-2.114l-0.036-28.867c-0.004-2.822,0.125-5.192,0.394-7.105c0.294-2.096,0.769-3.708,1.433-4.829l0.003,0.002
	c0.701-1.22,1.807-2.275,3.313-3.163c1.002-0.591,2.197-1.119,3.583-1.582l-0.002-1.645L65.087,65.19l0.002,1.637
	c1.404,0.454,2.613,0.971,3.626,1.552c1.544,0.885,2.655,1.93,3.331,3.134c0.618,1.092,1.073,2.694,1.358,4.8
	c0.259,1.914,0.393,4.305,0.396,7.167l0.087,69.911c0.003,2.813-0.132,5.178-0.401,7.094c-0.295,2.095-0.764,3.712-1.402,4.854
	l-0.008,0.009c-0.703,1.237-1.817,2.292-3.342,3.168c-0.993,0.57-2.166,1.069-3.517,1.499l0.002,1.616l38.328-0.048l-0.002-1.606
	c-1.398-0.431-2.605-0.936-3.619-1.516c-1.559-0.893-2.69-1.98-3.384-3.27l-0.008-0.008c-0.615-1.159-1.067-2.765-1.353-4.818
	c-0.264-1.895-0.398-4.224-0.401-6.989l-0.04-32.188l-0.003-2.125l2.114-0.002l6.006-0.007l2.125-0.003l0.002,2.114L105.008,141.081
	z"/>
<g>
	<path fill="#FFEC03" d="M55.202,188.241c0.206-1.016,0.183-2.021-0.07-3.02c-0.252-0.997-0.667-1.941-1.246-2.834
		c-0.578-0.892-1.179-1.669-1.803-2.33c-1.273-1.351-2.628-2.258-4.064-2.72c-1.436-0.463-2.847-0.632-4.23-0.509
		c-1.383,0.125-2.678,0.476-3.883,1.056c-1.205,0.579-2.206,1.241-3.003,1.987l-6.777,6.343l7.882,8.361l2.229-0.74l-2.253-0.957
		l4.326-4.048c0.887,0.915,1.817,1.683,2.791,2.304c0.974,0.622,1.95,1.054,2.929,1.296c0.979,0.243,1.933,0.267,2.86,0.07
		c0.929-0.195,1.785-0.66,2.569-1.395C54.415,190.211,54.996,189.256,55.202,188.241z M51.84,183.799
		c-0.198,0.36-0.498,0.777-0.9,1.254c-0.402,0.476-0.929,1.018-1.58,1.628c-0.346,0.323-0.782,0.649-1.308,0.98
		c-0.526,0.331-1.076,0.59-1.649,0.777c-0.574,0.188-1.144,0.267-1.71,0.235c-0.566-0.03-1.082-0.238-1.547-0.626l3.727-3.488
		c0.572-0.535,1.131-0.983,1.677-1.346c0.546-0.361,1.049-0.632,1.505-0.811c0.457-0.179,0.856-0.272,1.199-0.28
		c0.342-0.009,0.588,0.066,0.738,0.226c0.125,0.132,0.18,0.316,0.166,0.554C52.145,183.14,52.039,183.438,51.84,183.799z"/>
	<path fill="#FFEC03" d="M23.301,136.465c0.387-0.064,0.778-0.105,1.173-0.126c0.396-0.019,0.8-0.013,1.215,0.02
		c0.414,0.032,0.864,0.104,1.35,0.216c-0.167-0.874-0.294-1.687-0.382-2.438c-0.087-0.751-0.175-1.524-0.262-2.321
		s-0.187-1.657-0.297-2.579c-0.111-0.922-0.281-1.98-0.509-3.176l-0.261-1.365l-2.168-0.421l1.084,1.597l-17.542,3.325l1.917,10.038
		l13.432-2.547C22.498,136.604,22.915,136.528,23.301,136.465z"/>
	<path fill="#FFEC03" d="M35.804,171.757c0.409-0.2,0.792-0.382,1.147-0.546c0.356-0.163,0.722-0.307,1.099-0.43
		c0.375-0.123,0.768-0.223,1.176-0.301s0.861-0.127,1.358-0.148c-0.4-0.815-0.747-1.581-1.039-2.299
		c-0.292-0.717-0.587-1.463-0.887-2.237s-0.64-1.609-1.02-2.506s-0.858-1.933-1.436-3.106l-2.623-5.334l-2.203,0.164l1.834,1.563
		c0.04,0.163,0.01,0.319-0.089,0.469s-0.239,0.299-0.419,0.448c-0.181,0.148-0.382,0.287-0.603,0.415s-0.438,0.244-0.651,0.348
		c-1.081,0.527-2.132,0.971-3.154,1.328c-1.022,0.357-2.02,0.662-2.992,0.914c-0.547-0.906-1.18-1.72-1.899-2.44
		c-0.72-0.721-1.494-1.294-2.322-1.719s-1.676-0.674-2.544-0.745c-0.868-0.072-1.719,0.096-2.554,0.503
		c-0.409,0.2-0.78,0.427-1.112,0.68c-0.333,0.254-0.597,0.52-0.795,0.798c-0.198,0.278-0.318,0.57-0.362,0.874
		c-0.043,0.305,0.016,0.62,0.176,0.946c0.593,1.207,1.872,2.136,3.835,2.785c1.964,0.649,4.5,0.893,7.607,0.731
		c0.152,0.391,0.25,0.798,0.296,1.221s0.034,0.833-0.035,1.23l-6.581,3.213l4.873,9.909l1.504-0.036l-1.202-1.021L35.804,171.757z
		 M20.84,161.145c-1.015,0.04-1.916-0.005-2.701-0.138c-0.786-0.133-1.441-0.339-1.964-0.619s-0.881-0.616-1.074-1.008
		c-0.233-0.473-0.136-0.813,0.29-1.021c0.376-0.184,0.905-0.346,1.587-0.486c0.682-0.142,1.428-0.161,2.239-0.062
		c0.81,0.1,1.648,0.369,2.513,0.806c0.865,0.438,1.66,1.147,2.386,2.128C22.947,160.971,21.856,161.104,20.84,161.145z
		 M29.403,162.486c1.049-0.158,2.153-0.358,3.313-0.602l-5.894,2.878c-0.054-0.317-0.121-0.639-0.2-0.964
		c-0.079-0.326-0.166-0.647-0.261-0.965C27.34,162.761,28.354,162.645,29.403,162.486z"/>
	<path fill="#FFEC03" d="M16.826,147.524c0.442-0.694,0.662-1.559,0.66-2.594c-0.003-1.034-0.15-2.319-0.443-3.854
		c1.6-0.174,3.079-0.204,4.436-0.092s2.537,0.314,3.54,0.604c1.001,0.291,1.804,0.652,2.406,1.084
		c0.602,0.431,0.947,0.879,1.036,1.343c0.062,0.321-0.066,0.577-0.383,0.767c-0.146-0.38-0.446-0.711-0.9-0.995
		c-0.453-0.283-0.965-0.515-1.538-0.693c-0.572-0.178-1.17-0.296-1.793-0.354c-0.624-0.057-1.177-0.04-1.66,0.052
		c-0.573,0.108-1.023,0.305-1.35,0.589c-0.326,0.283-0.45,0.631-0.372,1.041c0.075,0.393,0.325,0.752,0.749,1.078
		c0.424,0.327,0.931,0.601,1.521,0.821c0.59,0.221,1.217,0.37,1.881,0.447c0.664,0.078,1.265,0.065,1.802-0.036
		c1.182-0.224,2.007-0.593,2.475-1.106c0.467-0.515,0.638-1.102,0.512-1.762c-0.143-0.75-0.561-1.479-1.253-2.189
		c-0.692-0.71-1.636-1.331-2.841-1.86c-1.206-0.529-2.653-0.944-4.353-1.241c-1.694-0.299-3.624-0.418-5.78-0.36l0.078,0.263
		c0.085,0.445,0.004,0.85-0.242,1.21c-0.247,0.361-0.634,0.689-1.158,0.982c-0.528,0.295-1.192,0.559-1.992,0.794
		c-0.799,0.234-1.696,0.446-2.699,0.637l1.574,8.244c1.666-0.315,2.986-0.691,3.961-1.125
		C15.673,148.783,16.382,148.219,16.826,147.524z"/>
	<path fill="#FFEC03" d="M186.731,203.685l-6.913-10.893c-0.244-0.385-0.467-0.743-0.669-1.078
		c-0.201-0.335-0.385-0.683-0.547-1.042c-0.164-0.358-0.307-0.736-0.428-1.133c-0.123-0.396-0.221-0.839-0.295-1.329l-8.666,5.461
		c0.073,0.49,0.172,0.935,0.294,1.33c0.121,0.396,0.265,0.773,0.428,1.133s0.345,0.706,0.547,1.041s0.425,0.694,0.668,1.078
		l1.608,2.533l-2.312,1.456l-1.607-2.532c-0.244-0.384-0.467-0.743-0.668-1.079c-0.202-0.334-0.385-0.682-0.548-1.041
		c-0.163-0.358-0.306-0.736-0.428-1.133c-0.122-0.396-0.22-0.839-0.294-1.33c-0.756,0.477-1.467,0.893-2.136,1.249
		c-0.669,0.357-1.358,0.722-2.071,1.096c-0.712,0.374-1.478,0.781-2.298,1.223c-0.819,0.441-1.746,0.987-2.778,1.638l-1.179,0.743
		l0.403,2.164l1.093-1.592l9.544,15.038l9.36-5.898l-0.199-1.486l-0.889,1.301l-4.574-7.207l2.311-1.457l4.97,7.83l9.36-5.898
		l-0.199-1.486L186.731,203.685z"/>
	<path fill="#FFEC03" d="M221.134,155.035l-11.008-5.48c-0.408-0.203-0.785-0.396-1.132-0.578c-0.347-0.184-0.683-0.386-1.009-0.609
		s-0.645-0.474-0.954-0.749c-0.31-0.276-0.624-0.605-0.942-0.986l-4.583,9.14c0.317,0.382,0.632,0.711,0.941,0.987
		c0.311,0.275,0.629,0.525,0.955,0.749c0.325,0.223,0.662,0.426,1.009,0.608s0.724,0.376,1.131,0.579l11.009,5.48l-1.223,2.437
		l-11.008-5.479c-0.408-0.203-0.785-0.396-1.132-0.579s-0.683-0.386-1.009-0.608c-0.326-0.224-0.644-0.474-0.954-0.75
		c-0.31-0.275-0.624-0.604-0.942-0.986c-0.399,0.796-0.792,1.52-1.18,2.169c-0.387,0.65-0.788,1.318-1.204,2.005
		c-0.415,0.687-0.859,1.431-1.332,2.23c-0.473,0.801-0.981,1.745-1.527,2.834l-0.624,1.242l1.469,1.646l0.109-1.926l15.974,7.953
		l8.776-17.501c0.48-0.959,1.09-1.533,1.827-1.725c0.738-0.191,1.592-0.097,2.563,0.285l0.159-0.317l-3.45-3.483L221.134,155.035z"
		/>
	<path fill="#FFEC03" d="M153.475,208.013c-0.121-0.438-0.229-0.846-0.325-1.224c-0.096-0.38-0.17-0.765-0.222-1.155
		c-0.052-0.392-0.078-0.794-0.08-1.208c-0.001-0.414,0.034-0.867,0.105-1.357c-0.878,0.242-1.698,0.439-2.46,0.593
		s-1.551,0.305-2.37,0.455c-0.819,0.151-1.706,0.329-2.66,0.536c-0.954,0.206-2.064,0.484-3.33,0.833l-5.745,1.584l-0.244,2.188
		l1.88-1.508c0.168-0.009,0.316,0.049,0.445,0.174s0.251,0.289,0.364,0.493s0.213,0.427,0.299,0.667
		c0.085,0.24,0.159,0.475,0.223,0.702c0.321,1.155,0.563,2.267,0.728,3.333c0.163,1.067,0.279,2.1,0.35,3.099
		c-0.995,0.368-1.914,0.838-2.759,1.41c-0.844,0.571-1.551,1.224-2.123,1.956c-0.572,0.733-0.975,1.518-1.205,2.354
		c-0.231,0.837-0.224,1.701,0.024,2.595c0.122,0.438,0.276,0.843,0.465,1.215s0.402,0.681,0.641,0.926s0.503,0.417,0.795,0.516
		c0.293,0.099,0.614,0.1,0.966,0.002c1.301-0.357,2.452-1.438,3.455-3.242c1.004-1.803,1.712-4.241,2.126-7.314
		c0.414-0.076,0.834-0.098,1.26-0.063c0.425,0.033,0.827,0.12,1.207,0.261l1.954,7.038l10.674-2.942l0.241-1.48l-1.229,0.989
		L153.475,208.013z M140.246,220.706c-0.147,1.002-0.359,1.876-0.635,2.62c-0.275,0.745-0.6,1.349-0.974,1.81
		c-0.373,0.461-0.771,0.749-1.191,0.866c-0.51,0.141-0.828-0.018-0.955-0.473c-0.111-0.402-0.173-0.951-0.187-1.645
		c-0.013-0.693,0.104-1.428,0.354-2.203c0.248-0.775,0.667-1.547,1.259-2.313c0.591-0.766,1.438-1.414,2.538-1.943
		C140.462,218.61,140.392,219.704,140.246,220.706z M143.93,215.535c-0.335,0.017-0.669,0.043-0.999,0.077
		c0.108-0.973,0.182-1.986,0.219-3.043s0.044-2.175,0.019-3.355l1.75,6.303C144.596,215.512,144.266,215.518,143.93,215.535z"/>
	<path fill="#FFEC03" d="M68.589,195.427c-0.565-0.434-1.151-0.886-1.757-1.355c-0.606-0.471-1.266-0.976-1.978-1.517
		c-0.713-0.54-1.558-1.128-2.535-1.764l-1.167-0.761l-1.809,1.264l1.907,0.33l-9.769,14.895l6.043,3.935
		c0.58,0.378,1.246,0.774,1.998,1.188c0.752,0.414,1.542,0.787,2.369,1.119c0.827,0.333,1.667,0.598,2.518,0.794
		c0.851,0.196,1.675,0.276,2.471,0.241c0.796-0.034,1.532-0.218,2.207-0.549c0.674-0.331,1.25-0.861,1.729-1.591
		c0.379-0.578,0.596-1.158,0.651-1.74c0.056-0.583-0.009-1.156-0.194-1.722c-0.185-0.565-0.46-1.108-0.827-1.629
		s-0.783-1.015-1.25-1.481c-0.467-0.466-0.96-0.901-1.479-1.305s-1.011-0.767-1.474-1.09l1.302-1.984
		c0.399-0.608,0.778-1.153,1.138-1.636c0.36-0.481,0.815-0.944,1.368-1.388c0.724,0.623,1.291,1.394,1.702,2.312
		c0.41,0.919,0.757,1.926,1.04,3.021l0.366,0.238l0.856-4.194l-3.548-2.311C69.781,196.3,69.155,195.86,68.589,195.427z
		 M66.576,204.971c0.202,0.49,0.304,0.99,0.306,1.502c0.002,0.511-0.073,1.016-0.225,1.514c-0.152,0.497-0.358,0.944-0.617,1.339
		c-0.648,0.988-1.395,1.62-2.239,1.895c-0.844,0.275-1.845,0.198-3.001-0.229l4.802-7.321
		C66.049,204.048,66.375,204.481,66.576,204.971z"/>
	<path fill="#FFEC03" d="M126.032,218.763c-0.352-0.367-0.787-0.683-1.307-0.946c-0.52-0.265-1.122-0.5-1.808-0.707
		c0.7-0.174,1.243-0.454,1.632-0.841c0.388-0.386,0.676-0.779,0.864-1.182c0.188-0.401,0.302-0.779,0.342-1.133
		c0.041-0.353,0.063-0.584,0.066-0.692c0.022-0.617-0.134-1.2-0.47-1.749c-0.335-0.548-0.864-1.04-1.588-1.475
		c-0.723-0.436-1.64-0.792-2.752-1.068c-1.111-0.276-2.433-0.442-3.963-0.498c-1.402-0.051-2.615-0.072-3.637-0.063
		c-1.021,0.008-1.952,0.02-2.792,0.035c-0.84,0.015-1.639,0.031-2.396,0.049c-0.758,0.019-1.574,0.012-2.448-0.021l-0.895,2.013
		l1.36-0.523c0.125,0.586,0.191,1.147,0.198,1.684c0.008,0.537,0,1.123-0.023,1.759l-0.518,14.159l9.128,0.331
		c1.73,0.063,3.13,0.063,4.2,0.002s1.955-0.188,2.655-0.381s1.293-0.458,1.78-0.794c0.486-0.337,1.021-0.749,1.604-1.237
		c0.527-0.453,0.947-0.97,1.261-1.549c0.313-0.58,0.483-1.26,0.512-2.04c0.026-0.709-0.047-1.315-0.22-1.821
		C126.645,219.567,126.383,219.13,126.032,218.763z M119.737,223.661c-0.231,0.582-0.533,1.107-0.905,1.575
		c-0.373,0.469-0.789,0.854-1.247,1.154c-0.458,0.302-0.925,0.48-1.401,0.536l0.636-17.427c0.598,0.112,1.093,0.303,1.484,0.571
		s0.708,0.59,0.95,0.962c0.241,0.372,0.409,0.773,0.503,1.204s0.133,0.854,0.118,1.271c-0.032,0.872-0.238,1.632-0.617,2.282
		c-0.38,0.649-0.813,1.156-1.301,1.521l-0.006,0.163c0.232,0.118,0.477,0.309,0.731,0.572s0.494,0.59,0.717,0.98
		c0.223,0.39,0.403,0.823,0.541,1.301s0.196,0.979,0.177,1.506C120.095,222.47,119.968,223.078,119.737,223.661z"/>
	<path fill="#FFEC03" d="M98.831,210.121c-0.304-0.848-0.732-1.639-1.284-2.375c-0.552-0.736-1.212-1.39-1.98-1.96l2.121-2.327
		l-2.952-0.305l-0.608,1.783c-0.629-0.324-1.268-0.576-1.918-0.755c-1.616-0.446-3.198-0.59-4.746-0.433
		c-1.547,0.158-2.98,0.583-4.298,1.275c-1.317,0.692-2.463,1.635-3.438,2.827c-0.974,1.191-1.687,2.602-2.139,4.229
		c-0.345,1.243-0.408,2.475-0.188,3.694s0.648,2.351,1.285,3.394c0.637,1.042,1.451,1.945,2.44,2.708s2.073,1.307,3.25,1.631
		c1.669,0.46,3.292,0.596,4.866,0.408c1.574-0.188,3.016-0.644,4.323-1.367c1.308-0.723,2.438-1.679,3.393-2.867
		c0.954-1.188,1.642-2.544,2.065-4.067c0.262-0.945,0.372-1.886,0.329-2.82C99.308,211.859,99.135,210.969,98.831,210.121z
		 M95.32,212.546c-0.176,0.94-0.407,1.928-0.694,2.961c-0.326,1.173-0.781,2.234-1.367,3.186c-0.586,0.95-1.179,1.757-1.779,2.421
		s-1.147,1.168-1.64,1.513c-0.493,0.346-0.801,0.5-0.924,0.467c-0.211-0.059-0.439-0.361-0.684-0.909
		c-0.245-0.549-0.436-1.256-0.574-2.123s-0.191-1.853-0.158-2.956c0.032-1.103,0.211-2.241,0.536-3.414
		c0.297-1.067,0.678-2.051,1.146-2.949c0.467-0.898,0.963-1.682,1.488-2.347c0.525-0.665,1.054-1.188,1.585-1.57
		c0.531-0.381,1.021-0.595,1.469-0.641l-0.854,2.563l1.958-2.146c0.315,0.294,0.539,0.732,0.67,1.315
		c0.131,0.583,0.178,1.265,0.141,2.047C95.603,210.744,95.496,211.604,95.32,212.546z"/>
	<path fill="#FFEC03" d="M225.178,127.919c-0.332-0.713-0.776-1.315-1.333-1.806c-0.557-0.491-1.26-0.817-2.108-0.979
		c-0.672-0.128-1.285-0.107-1.84,0.063c-0.555,0.169-1.056,0.444-1.504,0.826c-0.448,0.383-0.843,0.839-1.182,1.37
		c-0.339,0.53-0.635,1.098-0.887,1.7s-0.465,1.217-0.639,1.843c-0.175,0.627-0.323,1.213-0.444,1.757l-2.308-0.438
		c-0.442-0.084-0.853-0.167-1.231-0.248c-0.378-0.081-0.753-0.185-1.123-0.31c-0.37-0.126-0.739-0.278-1.108-0.458
		c-0.368-0.181-0.756-0.41-1.16-0.688c-0.165,0.866-0.344,1.661-0.537,2.386c-0.192,0.724-0.394,1.469-0.604,2.234
		c-0.21,0.767-0.432,1.595-0.665,2.484c-0.233,0.891-0.463,1.928-0.688,3.112l-0.257,1.353l1.838,1.175l-0.415-1.865l17.32,3.295
		l1.332-7.002c0.128-0.673,0.24-1.43,0.337-2.273c0.096-0.843,0.141-1.704,0.134-2.585c-0.006-0.881-0.079-1.746-0.22-2.598
		S225.509,128.633,225.178,127.919z M216.381,132.91c0.179-0.552,0.454-1.013,0.827-1.382c0.372-0.368,0.792-0.65,1.26-0.845
		c0.468-0.195,0.958-0.317,1.472-0.367c0.513-0.049,1-0.029,1.459,0.059c1.149,0.219,2.009,0.661,2.578,1.328
		c0.569,0.668,0.876,1.61,0.919,2.827L216.381,132.91z"/>
	<path fill="#FFEC03" d="M202.211,181.908c0.02,1.211-0.055,2.352-0.224,3.422s-0.588,2.018-1.259,2.843l-6.209-5.409l2.093-2.402
		l-0.61-1.355l-2.501,2.871l-2.239-1.951c-0.543-0.473-1.026-0.918-1.451-1.335c-0.424-0.417-0.816-0.926-1.177-1.526
		c0.72-0.662,1.565-1.132,2.534-1.409c0.97-0.277,2.018-0.486,3.144-0.628l0.283-0.326l-4.001-1.408l-2.465,2.83
		c-0.579,0.665-1.135,1.262-1.666,1.789c-0.531,0.528-1.081,1.069-1.648,1.626c-0.567,0.556-1.177,1.159-1.827,1.81
		c-0.65,0.651-1.372,1.432-2.164,2.341l-0.904,1.038l0.995,1.94l0.582-1.819l13.295,11.58l9.647-11.075l-1.944-3.771
		L202.211,181.908z"/>
	<path fill="#FFEC03" d="M169.506,42.881l8.26,7.166l1.354-0.613l-1.488-0.469l5.538-6.384l2.039,1.77l-6.016,6.935l8.261,7.165
		l1.354-0.613l-1.488-0.468l8.369-9.646c0.295-0.34,0.572-0.653,0.833-0.94c0.26-0.286,0.538-0.558,0.832-0.815
		s0.612-0.5,0.953-0.728c0.341-0.229,0.734-0.448,1.178-0.658l-7.647-6.635c-0.444,0.21-0.837,0.429-1.179,0.658
		c-0.341,0.229-0.658,0.471-0.953,0.728c-0.294,0.257-0.572,0.529-0.832,0.815c-0.261,0.286-0.538,0.599-0.833,0.939l-1.946,2.243
		l-2.039-1.769l1.946-2.244c0.295-0.34,0.572-0.653,0.833-0.939c0.26-0.287,0.537-0.558,0.832-0.815
		c0.294-0.257,0.611-0.5,0.953-0.728c0.341-0.228,0.733-0.448,1.179-0.658c-0.667-0.578-1.265-1.132-1.793-1.663
		c-0.529-0.53-1.072-1.079-1.629-1.645s-1.162-1.174-1.813-1.824c-0.652-0.649-1.434-1.369-2.345-2.159l-1.04-0.902l-1.939,0.999
		l1.821,0.579L169.506,42.881z"/>
	<path fill="#FFEC03" d="M154.055,34.737l1.12-0.977l-1.56-0.021l3.467-7.707l2.462,1.107l-3.766,8.372l9.973,4.485l1.121-0.977
		L165.312,39l5.238-11.647c0.185-0.411,0.36-0.79,0.527-1.14c0.167-0.349,0.354-0.689,0.563-1.02s0.442-0.654,0.703-0.971
		s0.574-0.64,0.939-0.969l-9.234-4.153c-0.365,0.329-0.678,0.652-0.939,0.969c-0.261,0.317-0.495,0.641-0.703,0.972
		c-0.207,0.331-0.396,0.671-0.563,1.02c-0.166,0.349-0.342,0.729-0.526,1.14l-1.219,2.708l-2.462-1.107l1.218-2.708
		c0.185-0.411,0.36-0.791,0.527-1.14s0.354-0.689,0.563-1.02s0.442-0.655,0.703-0.972c0.261-0.316,0.574-0.64,0.939-0.969
		c-0.805-0.362-1.536-0.721-2.195-1.076s-1.337-0.725-2.033-1.107s-1.451-0.791-2.262-1.225c-0.812-0.434-1.768-0.898-2.867-1.393
		l-1.256-0.564l-1.569,1.514l1.91,0.031l-7.231,16.08L154.055,34.737z"/>
	<path fill="#FFEC03" d="M214.072,95.415l4.999-1.154c0.438-0.101,0.848-0.191,1.227-0.269c0.379-0.079,0.763-0.135,1.152-0.169
		c0.389-0.034,0.789-0.043,1.199-0.027c0.409,0.016,0.856,0.07,1.339,0.162c-0.198-0.859-0.354-1.659-0.47-2.399
		c-0.116-0.74-0.231-1.503-0.349-2.289c-0.117-0.786-0.248-1.633-0.393-2.542c-0.146-0.909-0.354-1.95-0.625-3.125l-0.31-1.342
		l-2.155-0.334l1.131,1.54l-17.179,3.966l1.293,5.604l11.089,4.7l-9.497,2.192l2.459,10.655l1.456,0.301l-0.928-1.255l12.444-2.872
		c0.438-0.102,0.847-0.191,1.226-0.27s0.764-0.135,1.153-0.169c0.389-0.035,0.788-0.043,1.198-0.027s0.857,0.07,1.34,0.162
		l-1.439-6.235L214.072,95.415z"/>
	<path fill="#FFEC03" d="M139.79,22.514c0.76-1.302,1.235-2.73,1.428-4.285c0.12-0.965,0.091-1.902-0.086-2.813
		c-0.178-0.911-0.477-1.76-0.896-2.546c-0.42-0.787-0.952-1.501-1.599-2.144c-0.646-0.642-1.386-1.187-2.219-1.635l1.735-2.587
		l-2.927,0.127l-0.336,1.835c-0.661-0.227-1.322-0.381-1.983-0.463c-1.644-0.204-3.21-0.117-4.698,0.262
		c-1.489,0.377-2.827,1.001-4.013,1.869c-1.188,0.869-2.17,1.958-2.949,3.267c-0.779,1.31-1.271,2.795-1.477,4.456
		c-0.157,1.268-0.04,2.484,0.351,3.648c0.391,1.164,0.973,2.21,1.747,3.141c0.773,0.93,1.698,1.698,2.775,2.303
		c1.076,0.605,2.213,0.981,3.41,1.13c1.697,0.21,3.301,0.11,4.813-0.302c1.511-0.412,2.853-1.066,4.024-1.963
		C138.063,24.917,139.03,23.816,139.79,22.514z M134.648,24.706c-0.49,0.737-0.951,1.311-1.383,1.72
		c-0.432,0.409-0.71,0.606-0.835,0.59c-0.215-0.026-0.48-0.291-0.8-0.792c-0.318-0.502-0.608-1.168-0.868-1.999
		s-0.454-1.788-0.582-2.874c-0.129-1.086-0.119-2.228,0.029-3.425c0.135-1.089,0.365-2.108,0.691-3.057
		c0.326-0.948,0.697-1.786,1.114-2.515s0.856-1.318,1.32-1.768c0.464-0.451,0.912-0.731,1.342-0.841l-0.462,2.636l1.602-2.386
		c0.351,0.243,0.633,0.641,0.846,1.193c0.212,0.552,0.357,1.214,0.434,1.985c0.077,0.771,0.098,1.631,0.062,2.579
		c-0.036,0.948-0.119,1.949-0.25,3.002c-0.147,1.197-0.438,2.304-0.873,3.32C135.6,23.092,135.138,23.969,134.648,24.706z"/>
	<polygon fill="#FFEC03" points="228.787,98.059 227.664,95.354 221.915,96.375 	"/>
	<path fill="#FFEC03" d="M190.212,62.389l2.881,4.978l11.979,1.238l-8.435,4.884l5.479,9.463l1.479-0.139l-1.255-0.927l11.053-6.399
		c0.389-0.226,0.753-0.432,1.093-0.618c0.339-0.186,0.69-0.353,1.052-0.5c0.362-0.147,0.741-0.273,1.139-0.378
		c0.396-0.105,0.84-0.185,1.328-0.239l-3.206-5.538l-12.271-1.257l4.439-2.57c0.39-0.226,0.754-0.432,1.094-0.618
		c0.339-0.186,0.69-0.353,1.052-0.5c0.362-0.147,0.741-0.273,1.138-0.378c0.397-0.105,0.84-0.185,1.329-0.238
		c-0.442-0.764-0.827-1.482-1.154-2.156c-0.328-0.673-0.662-1.369-1.005-2.085s-0.717-1.489-1.122-2.314
		c-0.405-0.826-0.91-1.761-1.515-2.805l-0.689-1.192l-2.158,0.314l1.533,1.14L190.212,62.389z"/>
	<path fill="#FFEC03" d="M96.721,28.643l11.281-1.397l0.706-2.209l-2.078,1.236l-0.72-5.814c1.248-0.172,2.404-0.465,3.469-0.878
		c1.064-0.414,1.979-0.939,2.743-1.578c0.764-0.639,1.338-1.385,1.723-2.24c0.384-0.855,0.51-1.809,0.379-2.863
		c-0.159-1.286-0.585-2.308-1.277-3.066c-0.693-0.758-1.511-1.327-2.457-1.708c-0.945-0.382-1.943-0.603-2.993-0.664
		c-1.05-0.06-2.022-0.035-2.915,0.076c-1.822,0.226-3.337,0.776-4.543,1.651s-2.163,1.9-2.87,3.076
		c-0.707,1.176-1.179,2.413-1.417,3.712c-0.238,1.299-0.291,2.485-0.158,3.557L96.721,28.643z M105.278,10.524
		c0.124-0.468,0.281-0.842,0.474-1.12c0.192-0.278,0.396-0.43,0.61-0.457c0.178-0.022,0.359,0.042,0.541,0.192
		c0.182,0.149,0.359,0.409,0.532,0.777c0.172,0.369,0.332,0.852,0.479,1.451c0.146,0.598,0.274,1.335,0.383,2.21
		c0.058,0.465,0.065,1.003,0.023,1.616c-0.042,0.613-0.155,1.203-0.339,1.77c-0.184,0.567-0.453,1.067-0.807,1.501
		c-0.354,0.434-0.822,0.723-1.403,0.868l-0.62-5.011c-0.095-0.769-0.128-1.476-0.1-2.124
		C105.079,11.552,105.154,10.993,105.278,10.524z"/>
	<path fill="#FFEC03" d="M16.452,75.029c0.099-0.133,0.237-0.209,0.414-0.229c0.176-0.019,0.378-0.007,0.605,0.036
		c0.227,0.043,0.46,0.108,0.697,0.195c0.237,0.087,0.463,0.179,0.676,0.275c2.003,0.9,3.763,1.914,5.279,3.04
		s2.759,2.237,3.726,3.333s1.643,2.13,2.024,3.102c0.382,0.971,0.441,1.752,0.175,2.343c-0.074,0.164-0.179,0.3-0.315,0.406
		c-0.137,0.106-0.321,0.176-0.554,0.21c0.063-0.446-0.022-0.938-0.254-1.477c-0.231-0.538-0.541-1.067-0.929-1.587
		c-0.388-0.52-0.83-0.996-1.327-1.426s-0.992-0.757-1.484-0.978C24.56,81.992,24,81.888,23.503,81.96
		c-0.496,0.073-0.844,0.331-1.044,0.774c-0.199,0.443-0.218,0.968-0.056,1.573c0.162,0.605,0.438,1.209,0.83,1.809
		s0.864,1.163,1.417,1.688c0.553,0.525,1.117,0.917,1.691,1.175c1.133,0.509,2.071,0.65,2.815,0.422
		c0.744-0.228,1.278-0.703,1.603-1.425c0.398-0.886,0.487-1.917,0.266-3.093c-0.221-1.175-0.751-2.444-1.588-3.808
		c-0.837-1.363-1.974-2.807-3.41-4.331c-1.436-1.524-3.174-3.091-5.214-4.699l13.741,6.18l4.485-9.973l-0.977-1.121l-0.021,1.56
		l-11.647-5.238c-0.411-0.185-0.791-0.36-1.14-0.527c-0.349-0.167-0.689-0.355-1.02-0.563c-0.331-0.208-0.655-0.442-0.972-0.703
		c-0.316-0.261-0.64-0.574-0.969-0.939c-0.369,0.821-0.735,1.569-1.098,2.244c-0.363,0.676-0.746,1.372-1.147,2.089
		c-0.401,0.718-0.824,1.504-1.269,2.36c-0.444,0.856-0.932,1.875-1.464,3.058l-2.414,5.368l1.515,1.569L16.452,75.029z"/>
	<path fill="#FFEC03" d="M8.292,105.293l17.347,3.156l2.629-14.451l-3.598-2.246l-0.078,0.425c0.636,1.03,1.155,2.049,1.558,3.055
		s0.526,2.035,0.372,3.086l-8.102-1.474l0.57-3.134l-1.217-0.853l-0.681,3.746l-2.922-0.532c-0.708-0.128-1.352-0.264-1.93-0.406
		c-0.578-0.142-1.175-0.378-1.792-0.71c0.28-0.937,0.766-1.772,1.458-2.506c0.691-0.734,1.485-1.45,2.38-2.147l0.077-0.425
		l-4.158,0.835l-0.672,3.692c-0.158,0.868-0.33,1.664-0.517,2.39c-0.187,0.725-0.382,1.472-0.586,2.24
		c-0.204,0.768-0.418,1.598-0.645,2.49c-0.226,0.892-0.447,1.931-0.663,3.118l-0.247,1.354l1.847,1.16L8.292,105.293z"/>
	<path fill="#FFEC03" d="M28.93,53.153l13.317,11.554l9.625-11.095l-1.951-3.766l-0.283,0.326c0.022,1.21-0.05,2.352-0.216,3.422
		s-0.584,2.019-1.253,2.845l-6.22-5.396l2.088-2.407l-0.613-1.354l-2.495,2.875l-2.244-1.946c-0.543-0.472-1.028-0.916-1.453-1.333
		s-0.818-0.924-1.18-1.524c0.719-0.664,1.563-1.135,2.531-1.414c0.969-0.279,2.017-0.491,3.142-0.634l0.283-0.327l-4.003-1.4
		l-2.459,2.835c-0.578,0.666-1.132,1.264-1.663,1.792c-0.53,0.529-1.079,1.072-1.645,1.629c-0.566,0.557-1.174,1.162-1.824,1.813
		c-0.649,0.652-1.369,1.434-2.159,2.345l-0.902,1.04l0.999,1.939L28.93,53.153z"/>
	<path fill="#FFEC03" d="M60.337,38.213l0.204-0.179c0.366-0.261,0.762-0.357,1.189-0.286c0.427,0.071,0.882,0.282,1.363,0.63
		c0.483,0.351,0.996,0.836,1.538,1.456c0.542,0.619,1.104,1.334,1.69,2.155l6.765-4.836c-0.974-1.362-1.858-2.39-2.652-3.083
		c-0.794-0.694-1.595-1.094-2.403-1.203c-0.808-0.108-1.676,0.054-2.606,0.487c-0.93,0.432-2.025,1.099-3.284,1.999
		c-0.818-1.362-1.458-2.675-1.919-3.938c-0.461-1.263-0.769-2.404-0.921-3.423c-0.153-1.019-0.161-1.888-0.021-2.607
		c0.139-0.719,0.399-1.214,0.779-1.486c0.263-0.188,0.546-0.18,0.847,0.025c-0.28,0.289-0.454,0.695-0.521,1.219
		c-0.068,0.524-0.063,1.08,0.013,1.667c0.077,0.587,0.218,1.172,0.425,1.754c0.207,0.583,0.451,1.072,0.733,1.467
		c0.335,0.469,0.697,0.79,1.088,0.965c0.391,0.174,0.754,0.141,1.091-0.1c0.322-0.23,0.542-0.603,0.66-1.119
		c0.118-0.516,0.154-1.084,0.109-1.704c-0.045-0.621-0.17-1.245-0.376-1.873c-0.206-0.627-0.465-1.161-0.779-1.6
		c-0.691-0.966-1.364-1.553-2.021-1.758c-0.656-0.206-1.255-0.115-1.797,0.272c-0.615,0.44-1.098,1.118-1.451,2.033
		c-0.352,0.916-0.52,2.02-0.497,3.32c0.022,1.3,0.25,2.77,0.685,4.417C58.702,34.525,59.393,36.305,60.337,38.213z"/>
	<path fill="#FFEC03" d="M70.936,19.831c0.622-0.832,1.395-1.477,2.317-1.934l6.519,16.701l10.187-3.976l0.087-1.483l-1.107,1.099
		l-4.637-11.88c-0.262-0.671-0.482-1.285-0.665-1.852s-0.294-1.199-0.333-1.894c0.943-0.256,1.909-0.281,2.897-0.078
		c0.988,0.204,2.013,0.504,3.076,0.901l0.403-0.157l-2.891-3.099l-3.496,1.365c-0.838,0.327-1.624,0.605-2.356,0.833
		c-0.732,0.228-1.493,0.457-2.282,0.688c-0.789,0.231-1.642,0.496-2.559,0.796c-0.917,0.3-1.979,0.685-3.186,1.156l-4.049,1.581
		l-0.036,4.217l0.402-0.157C69.744,21.605,70.313,20.663,70.936,19.831z"/>
	<path fill="#FFEC03" d="M45.481,35.215l10.254,14.342l8.237-5.889L56.12,32.687c-0.262-0.366-0.501-0.709-0.719-1.029
		c-0.218-0.32-0.417-0.653-0.598-1c-0.181-0.346-0.343-0.711-0.486-1.097c-0.142-0.385-0.264-0.818-0.364-1.299
		c-0.717,0.513-1.396,0.965-2.035,1.355c-0.639,0.391-1.299,0.79-1.979,1.2c-0.681,0.409-1.414,0.855-2.197,1.338
		c-0.783,0.483-1.666,1.075-2.647,1.776l-1.12,0.801l0.519,2.119L45.481,35.215z"/>
</g>
<g>
	<path fill="#FFEC03" d="M113.011,142.642h-10.383v-22.593h-6.146v32.976c0,5.482,0.511,9.179,1.537,11.09
		c1.024,1.91,3.501,3.337,7.434,4.277v5.482H61.843v-5.482c3.821-0.94,6.257-2.339,7.31-4.194c1.051-1.854,1.579-5.578,1.579-11.173
		V81.423c0-5.703-0.499-9.44-1.495-11.213c-0.997-1.772-3.462-3.184-7.393-4.236v-5.482h43.609v5.482
		c-3.876,1.052-6.341,2.492-7.393,4.319c-1.053,1.827-1.578,5.538-1.578,11.13v29.571h6.146v-21.68h10.383v20.517
		c2.879-0.997,5.26-2.546,7.144-4.651c3.543-3.932,6.507-9.441,8.888-16.53c2.879-8.693,5.523-14.84,7.934-18.44
		c2.408-3.599,5.439-6.34,9.095-8.224c3.655-1.882,8.417-2.824,14.287-2.824c4.54,0,8.527,0.637,11.962,1.911v20.517h-11.713
		c-0.609-5.039-2.824-7.559-6.645-7.559c-2.881,0-5.33,1.524-7.352,4.568c-2.021,3.046-4.141,7.393-6.354,13.042
		c-3.544,9.359-8.473,15.782-14.786,19.271v0.831c5.76,0.665,10.369,2.146,13.831,4.444c3.46,2.299,6.118,5.025,7.974,8.182
		s4.721,9.387,8.598,18.689c4.596,11.131,7.767,17.998,9.511,20.601c1.745,2.604,4.581,4.182,8.515,4.734v5.482h-36.383v-4.153
		c-0.775-1.771-2.797-7.227-6.063-16.363c-3.821-10.799-6.646-18.15-8.473-22.055c-1.827-3.903-4.07-6.74-6.729-8.514
		c-0.942-0.664-2.022-1.189-3.239-1.578V142.642z"/>
</g>
</svg>
