<?xml version="1.0" encoding="utf-8"?>
<!-- Generator: Adobe Illustrator 16.0.3, SVG Export Plug-In . SVG Version: 6.00 Build 0)  -->
<!DOCTYPE svg PUBLIC "-//W3C//DTD SVG 1.1//EN" "http://www.w3.org/Graphics/SVG/1.1/DTD/svg11.dtd">
<svg version="1.1" id="Шар_1" xmlns="http://www.w3.org/2000/svg" xmlns:xlink="http://www.w3.org/1999/xlink" x="0px" y="0px"
	 width="220.252px" height="220.252px" viewBox="0 0 220.252 220.252" enable-background="new 0 0 220.252 220.252"
	 xml:space="preserve">
<path fill-rule="evenodd" clip-rule="evenodd" fill="#00AEEF" d="M110.126,0c60.821,0,110.126,49.305,110.126,110.126
	s-49.305,110.126-110.126,110.126C49.305,220.252,0,170.947,0,110.126S49.305,0,110.126,0"/>
<path fill="#FFF200" d="M110.236,102.211c1.634-0.291,3.086-0.908,4.356-1.852s2.469-2.541,3.594-4.719L143.2,46.813
	c0.979-1.634,2.178-2.94,3.558-3.957c1.379-0.98,3.013-1.489,4.828-1.489h15.864l-31.147,57.432c-1.38,2.36-2.941,4.284-4.684,5.772
	c-1.779,1.488-3.739,2.614-5.881,3.376c3.34,0.871,6.135,2.287,8.422,4.283c2.251,1.961,4.393,4.721,6.39,8.277l29.986,60.627
	h-17.462c-3.521,0-6.354-1.924-8.495-5.736l-24.577-51.369c-1.271-2.287-2.65-3.92-4.139-4.9s-3.376-1.561-5.627-1.707v26.066
	H96.514v-26.176H86.422v63.822H67.036V41.367h19.386v61.062h10.092V72.225h13.722V102.211z"/>
</svg>
